<?xml version="1.0" encoding="UTF-8" standalone="no"?>
<!-- Created with Inkscape (http://www.inkscape.org/) -->

<svg
   xmlns:dc="http://purl.org/dc/elements/1.1/"
   xmlns:cc="http://creativecommons.org/ns#"
   xmlns:rdf="http://www.w3.org/1999/02/22-rdf-syntax-ns#"
   xmlns:svg="http://www.w3.org/2000/svg"
   xmlns="http://www.w3.org/2000/svg"
   xmlns:sodipodi="http://sodipodi.sourceforge.net/DTD/sodipodi-0.dtd"
   xmlns:inkscape="http://www.inkscape.org/namespaces/inkscape"
   width="210mm"
   height="297mm"
   viewBox="0 0 210 297"
   version="1.1"
   id="svg8"
   inkscape:version="0.92.4 (f8dce91, 2019-08-02)"
   sodipodi:docname="logo_temporis-academy.svg"
   inkscape:export-filename="/home/luigia/Documents/_T144/t.web/Images/logo_temporis-academy.svg.png"
   inkscape:export-xdpi="96"
   inkscape:export-ydpi="96">
  <defs
     id="defs2">
    <path
       style="fill:none;stroke:#000000;stroke-width:0.26458332px;stroke-linecap:butt;stroke-linejoin:miter;stroke-opacity:1"
       d="m 61.800485,106.74279 c 0,0 5.131108,-10.381765 16.332986,-18.760866 C 92.207476,77.454447 107.26798,75.180393 107.26798,75.180393"
       id="path4656-6"
       inkscape:connector-curvature="0"
       sodipodi:nodetypes="csc" />
    <path
       style="fill:#000000"
       d="m 107.26798,75.180393 c 0,0 12.70925,1.781081 25.16163,9.711507 12.72341,8.103037 20.08516,19.64372 20.08516,19.64372"
       id="path4677-0"
       inkscape:connector-curvature="0"
       sodipodi:nodetypes="csc" />
    <path
       style="fill:none;stroke:#000000;stroke-width:0.26458332px;stroke-linecap:butt;stroke-linejoin:miter;stroke-opacity:1"
       d="m 61.800485,106.74279 c 0,0 5.131108,-10.381765 16.332986,-18.760866 C 92.207476,77.454447 107.26798,75.180393 107.26798,75.180393"
       id="path4656-6-4"
       inkscape:connector-curvature="0"
       sodipodi:nodetypes="csc" />
    <filter
       style="color-interpolation-filters:sRGB;"
       inkscape:label="Drop Shadow"
       id="filter5523">
      <feFlood
         flood-opacity="0.498039"
         flood-color="rgb(0,0,0)"
         result="flood"
         id="feFlood5513" />
      <feComposite
         in="flood"
         in2="SourceGraphic"
         operator="in"
         result="composite1"
         id="feComposite5515" />
      <feGaussianBlur
         in="composite1"
         stdDeviation="2.6738"
         result="blur"
         id="feGaussianBlur5517" />
      <feOffset
         dx="1.3"
         dy="0.3"
         result="offset"
         id="feOffset5519" />
      <feComposite
         in="SourceGraphic"
         in2="offset"
         operator="over"
         result="composite2"
         id="feComposite5521" />
    </filter>
    <path
       style="fill:#000000;fill-opacity:1;stroke:#947300;stroke-width:1.000458;stroke-linecap:butt;stroke-linejoin:miter;stroke-miterlimit:4;stroke-dasharray:none;stroke-opacity:1"
       d="m 74.502982,113.85091 c 0,0 3.733596,-6.93305 12.499424,-13.70854 8.765828,-6.775486 20.940584,-8.823887 20.940584,-8.823887 0,0 10.55147,1.418123 20.12894,8.351175 7.78381,5.634622 13.14875,12.605542 13.14875,12.605542 0,0 0.92782,17.4176 -6.00622,33.24715 -8.76582,20.01131 -26.62215,24.10811 -26.62215,24.10811 0,0 -18.180975,-4.0968 -27.10913,-21.58701 -7.589795,-14.86834 -6.980198,-34.19254 -6.980198,-34.19254 z"
       id="path108-1-7"
       inkscape:connector-curvature="0"
       sodipodi:nodetypes="cscscscsc" />
    <path
       style="fill:#000000;fill-opacity:1;stroke:#947300;stroke-width:1.000458;stroke-linecap:butt;stroke-linejoin:miter;stroke-miterlimit:4;stroke-dasharray:none;stroke-opacity:1"
       d="m 74.502982,113.85091 c 0,0 3.733596,-6.93305 12.499424,-13.70854 8.765828,-6.775486 20.940584,-8.823887 20.940584,-8.823887 0,0 10.55147,1.418123 20.12894,8.351175 7.78381,5.634622 13.14875,12.605542 13.14875,12.605542 0,0 0.92782,17.4176 -6.00622,33.24715 -8.76582,20.01131 -26.62215,24.10811 -26.62215,24.10811 0,0 -18.180975,-4.0968 -27.10913,-21.58701 -7.589795,-14.86834 -6.980198,-34.19254 -6.980198,-34.19254 z"
       id="path5538"
       inkscape:connector-curvature="0"
       sodipodi:nodetypes="cscscscsc" />
    <filter
       style="color-interpolation-filters:sRGB"
       inkscape:label="Drop Shadow"
       id="filter5523-9">
      <feFlood
         flood-opacity="0.498039"
         flood-color="rgb(0,0,0)"
         result="flood"
         id="feFlood5513-6" />
      <feComposite
         in="flood"
         in2="SourceGraphic"
         operator="in"
         result="composite1"
         id="feComposite5515-2" />
      <feGaussianBlur
         in="composite1"
         stdDeviation="2.6738"
         result="blur"
         id="feGaussianBlur5517-1" />
      <feOffset
         dx="1.3"
         dy="0.3"
         result="offset"
         id="feOffset5519-2" />
      <feComposite
         in="SourceGraphic"
         in2="offset"
         operator="over"
         result="composite2"
         id="feComposite5521-0" />
    </filter>
    <path
       style="fill:#c63b00;fill-opacity:1;stroke:#5a2705;stroke-width:1.000458;stroke-linecap:butt;stroke-linejoin:miter;stroke-miterlimit:4;stroke-dasharray:none;stroke-opacity:1"
       d="m 74.502982,113.85091 c 0,0 3.733596,-6.93305 12.499424,-13.70854 8.765828,-6.775486 20.940584,-8.823887 20.940584,-8.823887 0,0 10.55147,1.418123 20.12894,8.351175 7.78381,5.634622 13.14875,12.605542 13.14875,12.605542 0,0 0.92782,17.4176 -6.00622,33.24715 -8.76582,20.01131 -26.62215,24.10811 -26.62215,24.10811 0,0 -18.180975,-4.0968 -27.10913,-21.58701 -7.589795,-14.86834 -6.980198,-34.19254 -6.980198,-34.19254 z"
       id="path108-1-73"
       inkscape:connector-curvature="0"
       sodipodi:nodetypes="cscscscsc" />
  </defs>
  <sodipodi:namedview
     id="base"
     pagecolor="#ffffff"
     bordercolor="#666666"
     borderopacity="1.0"
     inkscape:pageopacity="0.0"
     inkscape:pageshadow="2"
     inkscape:zoom="0.73756861"
     inkscape:cx="449.30596"
     inkscape:cy="636.07889"
     inkscape:document-units="mm"
     inkscape:current-layer="layer3"
     showgrid="false"
     inkscape:window-width="1296"
     inkscape:window-height="704"
     inkscape:window-x="70"
     inkscape:window-y="27"
     inkscape:window-maximized="1"
     showguides="true"
     inkscape:guide-bbox="true" />
  <metadata
     id="metadata5">
    <rdf:RDF>
      <cc:Work
         rdf:about="">
        <dc:format>image/svg+xml</dc:format>
        <dc:type
           rdf:resource="http://purl.org/dc/dcmitype/StillImage" />
        <dc:title></dc:title>
      </cc:Work>
    </rdf:RDF>
  </metadata>
  <g
     inkscape:label="Calque 1"
     inkscape:groupmode="layer"
     id="layer1" />
  <g
     inkscape:groupmode="layer"
     id="layer2"
     inkscape:label="Calque 2">
    <path
       style="fill:#c63b00;stroke:none;stroke-width:1.265;stroke-linecap:butt;stroke-linejoin:miter;stroke-opacity:1;stroke-miterlimit:4;stroke-dasharray:none;fill-opacity:0"
       d="m 61.800485,106.74279 c 0,0 5.076471,-9.711508 16.995135,-19.202297 11.918664,-9.490789 28.47236,-12.360098 28.47236,-12.360098 0,0 14.34655,1.986443 27.36879,11.697949 10.58344,7.892736 17.878,17.657276 17.878,17.657276 0,0 1.26154,24.39778 -8.16649,46.57109 -11.91867,28.03093 -36.19743,33.76955 -36.19743,33.76955 0,0 -24.720193,-5.73862 -36.859576,-30.2381 -10.319642,-20.82691 -9.490789,-47.89537 -9.490789,-47.89537 z"
       id="path108"
       inkscape:connector-curvature="0"
       sodipodi:nodetypes="cscscscsc" />
    <flowRoot
       xml:space="preserve"
       id="flowRoot4621"
       style="font-style:normal;font-weight:normal;font-size:40px;line-height:1.25;font-family:sans-serif;letter-spacing:0px;word-spacing:0px;fill:#000000;fill-opacity:1;stroke:none"><flowRegion
         id="flowRegion4623"><rect
           id="rect4625"
           width="141.81439"
           height="125.96455"
           x="233.57663"
           y="277.47275" /></flowRegion><flowPara
         id="flowPara4627">      </flowPara></flowRoot>  </g>
  <g
     inkscape:groupmode="layer"
     id="layer3"
     inkscape:label="Calque 3" />
  <g
     inkscape:groupmode="layer"
     id="layer4"
     inkscape:label="Calque 4">
    <g
       id="g5107"
       transform="matrix(0.45789772,0,0,0.45789772,-21.671476,47.418505)"
       style="filter:url(#filter5523)">
      <path
         inkscape:connector-curvature="0"
         id="path5037"
         d="m 249.55053,128.91077 66.13601,104.73152 -66.5239,-1e-5 66.71784,-104.53757 z"
         style="fill:#c63b00;stroke:#c63b00;stroke-width:0.26458332px;stroke-linecap:butt;stroke-linejoin:miter;stroke-opacity:0;fill-opacity:1" />
      <path
         inkscape:connector-curvature="0"
         id="path4922"
         d="M 282.32762,180.88863 269.5271,160.52416 c 0,0 2.52132,-4.07289 12.60657,-3.87894 10.08526,0.19395 13.18843,4.26684 13.18843,4.26684 z"
         style="fill:#ffe201;fill-opacity:1;stroke:none;stroke-width:0.26458332px;stroke-linecap:butt;stroke-linejoin:miter;stroke-opacity:1" />
      <path
         inkscape:connector-curvature="0"
         id="path4948"
         d="M 282.32762,180.88863 269.5271,160.52416 c 0,0 3.10316,-4.07289 12.41263,-3.87894 9.30948,0.19395 13.38237,4.26684 13.38237,4.26684 l -12.99448,19.97657"
         style="fill:#000000;fill-opacity:1;stroke:none;stroke-width:0.26458332px;stroke-linecap:butt;stroke-linejoin:miter;stroke-opacity:1" />
      <path
         inkscape:connector-curvature="0"
         id="path4950"
         d="m 249.16264,233.64228 c 0,0 3.87894,-3.87894 7.95184,-6.01236 4.07289,-2.13342 7.75789,-2.9092 10.6671,-5.04262 2.90921,-2.13342 5.62447,-4.4608 9.30947,-5.62447 3.68499,-1.1637 3.68499,-1.35763 5.81841,-1.55159 2.13342,-0.19395 8.53369,3.2971 10.08526,4.07289 1.55156,0.7758 6.2063,3.49106 8.72762,5.23659 2.52132,1.74552 8.72763,4.07288 9.69738,5.43051 0.96972,1.35763 4.26683,3.49106 4.26683,3.49106 z"
         style="fill:#000000;fill-opacity:1;stroke:none;stroke-width:0.26458332px;stroke-linecap:butt;stroke-linejoin:miter;stroke-opacity:1" />
      <path
         inkscape:connector-curvature="0"
         id="path4952"
         d="m 260.66025,138.62999 -0.0575,-4.82884 h -3.21924 6.38098"
         style="fill:none;stroke:#000000;stroke-width:0.9000001;stroke-linecap:butt;stroke-linejoin:miter;stroke-miterlimit:4;stroke-dasharray:none;stroke-opacity:1" />
      <path
         sodipodi:nodetypes="ccccccc"
         inkscape:connector-curvature="0"
         id="path4954"
         d="m 273.65214,146.33315 h -5.17376 v -6.55343 h 3.56415 -3.56415 l 0.0575,2.18447 h 3.27671"
         style="fill:none;stroke:#000000;stroke-width:0.9000001;stroke-linecap:butt;stroke-linejoin:miter;stroke-miterlimit:4;stroke-dasharray:none;stroke-opacity:1" />
      <path
         sodipodi:nodetypes="ccccc"
         inkscape:connector-curvature="0"
         id="path4956"
         d="m 280.32055,138.97491 c -0.0575,-0.28743 -0.13704,-6.43255 0,-5.92109 0.13705,0.51147 2.49439,4.7803 2.49439,4.7803 l 2.62865,-5.01285 v 6.09615"
         style="fill:none;stroke:#000000;stroke-width:0.9000001;stroke-linecap:butt;stroke-linejoin:miter;stroke-miterlimit:4;stroke-dasharray:none;stroke-opacity:1" />
      <path
         sodipodi:nodetypes="ccccc"
         inkscape:connector-curvature="0"
         id="path4958"
         d="m 283.70799,148.46014 c 0,1.4383 0.67716,3.15927 2.811,3.10851 2.248,0 2.94631,-1.20055 2.94631,-2.8784 0,-1.67004 -1.12921,-2.87864 -2.90369,-2.93622 -1.77446,-0.0576 -2.85362,1.15164 -2.85362,2.70611 z"
         style="fill:none;stroke:#000000;stroke-width:0.9000001;stroke-linecap:butt;stroke-linejoin:miter;stroke-miterlimit:4;stroke-dasharray:none;stroke-opacity:1" />
      <path
         sodipodi:nodetypes="ccscc"
         inkscape:connector-curvature="0"
         id="path4976"
         d="m 295.5544,144.37861 -0.28742,-7.18577 c 0,0 3.10425,-0.28744 3.10425,1.89704 0,2.06951 -2.93179,1.43716 -2.93179,1.43716 z"
         style="fill:none;stroke:#000000;stroke-width:0.9000001;stroke-linecap:butt;stroke-linejoin:miter;stroke-miterlimit:4;stroke-dasharray:none;stroke-opacity:1" />
      <path
         sodipodi:nodetypes="cccccccc"
         inkscape:connector-curvature="0"
         id="path4978"
         d="m 274.65111,202.25703 v -4.7876 h 2.98581 c 0,0 0.77219,0.20592 0.72071,0.92663 -0.0515,0.72073 -2.16214,1.08107 -2.16214,1.08107 h -1.54438 1.44142 l 2.05918,2.62546"
         style="fill:none;stroke:#000000;stroke-width:0.9000001;stroke-linecap:butt;stroke-linejoin:miter;stroke-miterlimit:4;stroke-dasharray:none;stroke-opacity:1" />
      <path
         sodipodi:nodetypes="csccssccc"
         inkscape:connector-curvature="0"
         id="path4980"
         d="m 291.7938,202.97774 c 0,0 -1.38994,-0.51479 -2.67693,0.41184 -1.28699,0.92663 -0.61776,1.80178 -0.61776,1.80178 0.66923,0.36036 1.76319,0.0917 3.19174,0.10296 0,0 1.0296,-0.0515 1.13255,1.13255 0.10295,1.18404 -0.41185,2.21363 -1.33848,2.21363 h -3.70652 c 0,0 -0.61776,0.10296 -0.87515,-0.56627 -0.2574,-0.66924 0,0 0,0"
         style="fill:none;stroke:#000000;stroke-width:0.9000001;stroke-linecap:butt;stroke-linejoin:miter;stroke-miterlimit:4;stroke-dasharray:none;stroke-opacity:1" />
      <path
         inkscape:connector-curvature="0"
         id="path4982"
         d="m 278.46059,206.58131 v 5.35388"
         style="fill:none;stroke:#000000;stroke-width:0.9000001;stroke-linecap:butt;stroke-linejoin:miter;stroke-miterlimit:4;stroke-dasharray:none;stroke-opacity:1" />
      <path
         inkscape:connector-curvature="0"
         id="path4984"
         d="m 282.32762,180.88863 v 35.26788"
         style="fill:#ffc101;fill-opacity:1;stroke:#000000;stroke-width:0.9000001;stroke-linecap:butt;stroke-linejoin:miter;stroke-miterlimit:4;stroke-dasharray:none;stroke-opacity:1" />
      <path
         inkscape:connector-curvature="0"
         id="path4920"
         d="m 249.55053,128.91077 66.13602,104.73151 h -66.52391 l 66.71785,-104.53757 z"
         style="fill:none;stroke:#000000;stroke-width:1.96500003;stroke-linecap:butt;stroke-linejoin:miter;stroke-miterlimit:4;stroke-dasharray:none;stroke-opacity:0.98557691" />
    </g>
  </g>
  <g
     inkscape:groupmode="layer"
     id="layer5"
     inkscape:label="Calque 5" />
</svg>
